<svg width="20" height="8" viewBox="0 0 20 8" fill="none" xmlns="http://www.w3.org/2000/svg">
<path d="M19.2178 2.9062L17.0615 0.343697C16.874 0.124947 16.5303 0.0936972 16.2803 0.281197C16.0615 0.468697 16.0303 0.812447 16.2178 1.06245L18.249 3.4687H0.936539C0.624039 3.4687 0.374039 3.7187 0.374039 4.0312C0.374039 4.3437 0.624039 4.5937 0.936539 4.5937H18.249L16.2178 6.99995C16.0303 7.2187 16.0615 7.56245 16.2803 7.7812C16.374 7.87495 16.499 7.9062 16.624 7.9062C16.7803 7.9062 16.9365 7.8437 17.0303 7.7187L19.1865 5.1562C19.749 4.4687 19.749 3.5312 19.2178 2.9062Z" fill="#3056D3"/>
</svg>
