<svg width="18" height="18" viewBox="0 0 18 18" fill="none" xmlns="http://www.w3.org/2000/svg">
<path d="M8.9999 16.7063C8.6624 16.7063 8.29678 16.5938 8.04365 16.3406C7.39678 15.7781 6.7499 15.2438 6.1874 14.7656C4.52803 13.3594 3.09365 12.15 2.08115 10.9406C0.899902 9.53438 0.337402 8.18438 0.337402 6.69375C0.337402 5.23125 0.843653 3.88125 1.77178 2.89688C2.6999 1.88438 3.99365 1.32188 5.3999 1.32188C6.44053 1.32188 7.4249 1.65938 8.26865 2.30625C8.52178 2.50313 8.7749 2.72813 8.9999 2.98125C9.2249 2.72813 9.47803 2.50313 9.73115 2.30625C10.5749 1.65938 11.5312 1.32188 12.5999 1.32188C14.0062 1.32188 15.2718 1.88438 16.228 2.89688C17.1562 3.88125 17.6624 5.23125 17.6624 6.69375C17.6624 8.18438 17.0999 9.53438 15.9187 10.9406C14.9062 12.15 13.4718 13.3594 11.8124 14.7656C11.2499 15.2438 10.603 15.7781 9.95615 16.3406C9.70303 16.5656 9.3374 16.7063 8.9999 16.7063ZM5.3999 2.27813C4.2749 2.27813 3.23428 2.72813 2.50303 3.54375C1.74365 4.35938 1.3499 5.45625 1.3499 6.66563C1.3499 7.90313 1.82803 9.05625 2.84053 10.2938C3.79678 11.4469 5.20303 12.6281 6.83428 14.0063C7.39678 14.4844 8.04365 15.0188 8.69053 15.6094C8.85928 15.75 9.14053 15.75 9.30928 15.6094C9.98428 15.0469 10.603 14.4844 11.1655 14.0063C12.7968 12.6281 14.203 11.4469 15.1593 10.2938C16.1718 9.05625 16.6499 7.90313 16.6499 6.66563C16.6499 5.45625 16.228 4.35938 15.4968 3.54375C14.7374 2.72813 13.7249 2.27813 12.5999 2.27813C11.7562 2.27813 10.9968 2.53125 10.3499 3.06563C10.0687 3.2625 9.84365 3.51563 9.59053 3.79688C9.4499 3.96563 9.2249 4.07813 8.9999 4.07813C8.7749 4.07813 8.5499 3.96563 8.40928 3.79688C8.18428 3.51563 7.93115 3.2625 7.6499 3.06563C7.00303 2.55938 6.24365 2.27813 5.3999 2.27813Z" fill="#212B36"/>
</svg>
