<svg width="136" height="28" viewBox="0 0 136 28" fill="none" xmlns="http://www.w3.org/2000/svg">
<path fill-rule="evenodd" clip-rule="evenodd" d="M122.243 0.934332H135.475V3.05102C135.091 2.92177 134.688 2.85518 134.283 2.85378H126.677V12.7454H134.075C134.607 12.7454 135.08 12.686 135.475 12.5874V14.6939C135.139 14.6163 134.677 14.5764 134.106 14.5764H126.677V24.8038H134.056C134.46 24.8038 134.943 24.7444 135.475 24.6167V26.8915H122.263C122.362 26.5144 122.421 26.1098 122.421 25.6653V2.19027C122.421 1.67615 122.362 1.25049 122.243 0.934332ZM119.179 7.6709L115.356 7.64117C115.168 5.48532 113.937 3.39764 111.228 3.01186C105.425 2.48758 103.788 8.88769 103.936 13.5663C104.084 18.0767 104.804 25.0112 110.793 25.0112C113.306 25.0112 115.719 22.4196 115.642 20.2325L119.178 20.2043C118.922 24.7139 113.768 27.3252 111.315 27.4143C102.932 27.7015 99.423 22.0918 99.2468 14.0899C99.0886 6.83916 102.044 0.399902 110.33 0.399902C117.426 0.499247 118.794 4.71305 119.179 7.6709ZM59.5532 23.9416L62.0854 21.8155C63.4057 24.0026 64.4898 25.0011 67.1101 25.0011C69.7702 25.0011 72.0077 23.3782 72.0077 20.5103C72.0077 19.0955 71.435 17.9382 70.3025 17.0687C69.7904 16.6619 68.4896 15.96 66.4406 14.9811C63.376 13.5068 60.391 11.5881 60.391 7.73036C60.391 2.86393 64.5093 0.71751 68.8536 0.558704C71.4256 0.460085 74.6172 1.88499 75.9086 3.48683L73.3366 5.47517C72.8781 4.61597 72.1963 3.89749 71.3638 3.39599C70.5312 2.89449 69.5789 2.62869 68.6081 2.62681C65.3269 2.62681 62.726 6.44468 65.4453 9.07623C66.1351 9.74916 67.5442 10.5794 69.6914 11.5693C73.1207 13.182 76.0465 15.1109 76.0465 19.374C76.0465 20.8467 75.663 22.2223 74.9039 23.4783C73.3764 26.0105 70.8246 27.2766 67.2589 27.2766C63.1586 27.2758 62.3512 26.3368 59.5532 23.9416ZM23.4737 0.934332H36.696V3.05102C36.3116 2.9216 35.909 2.855 35.5036 2.85378H27.8975V12.7454H35.2963C35.8286 12.7454 36.3016 12.686 36.696 12.5874V14.6939C36.3609 14.6163 35.8979 14.5764 35.336 14.5764H27.8975V24.8038H35.2768C35.6805 24.8038 36.1637 24.7444 36.6953 24.6167V26.8915H23.4932C23.582 26.5144 23.6413 26.1098 23.6413 25.6653V2.19027C23.6413 1.67615 23.582 1.25049 23.4737 0.934332ZM0.350021 0.934332H5.15806V1.17145C5.15806 1.38972 5.2274 1.67615 5.34513 2.04235L12.1235 22.5283L19.0788 1.95316C19.1871 1.60654 19.2463 1.2708 19.2463 0.934332H21.5807C21.3445 1.34984 21.1668 1.71603 21.0585 2.04235L13.1173 25.8328C13.0386 26.0591 12.9692 26.4165 12.91 26.8908H8.96867C8.90937 26.5314 8.82047 26.1775 8.70289 25.8328L0.922046 2.23016C0.833209 2.01261 0.646145 1.56738 0.360133 0.934332H0.350021ZM51.4148 14.4669C54.5674 13.844 56.9812 11.4199 56.9812 7.95806C56.9812 3.41722 53.1988 0.934332 48.9613 0.934332H41.2173C41.3256 1.33026 41.3849 1.74576 41.3849 2.18085V25.6443C41.3849 26.1482 41.3256 26.5732 41.2173 26.8908H45.8282C45.716 26.4849 45.6598 26.0655 45.6613 25.6443V14.8621L47.1391 15.0209L54.8636 26.8908H59.504L51.4148 14.4669ZM50.6167 12.488C49.7796 13.0819 48.7742 13.3785 47.6222 13.3785H45.6512V2.82332H47.4142C48.9223 2.82332 50.0938 3.19967 50.9316 3.95092C52.0749 4.99005 52.6564 6.39465 52.6564 8.1553C52.6564 10.0544 51.976 11.4989 50.6167 12.488ZM98.479 25.8125L89.8683 1.79507C89.7724 1.5175 89.716 1.22773 89.7007 0.934332H85.9768C85.9768 1.24107 85.9277 1.56738 85.8092 1.89369L77.465 25.8125C77.3567 26.1584 77.179 26.5137 76.9429 26.8901H79.3465C79.3319 26.5249 79.382 26.16 79.4946 25.8125L81.9661 18.759H91.4739L93.9173 25.8125C94.0458 26.1976 94.1051 26.5529 94.1051 26.8901H99.09C98.8048 26.4854 98.5975 26.1185 98.479 25.8125ZM82.6162 16.8505L86.6362 5.12855L90.7639 16.8505H82.6162Z" fill="#3F3F3F"/>
</svg>
