<svg width="103" height="29" viewBox="0 0 103 29" fill="none" xmlns="http://www.w3.org/2000/svg">
<path d="M0.579774 0.857381C6.62994 0.857381 12.6788 0.862674 18.729 0.854736C18.7355 2.50832 18.742 4.16189 18.7264 5.81679C14.4539 5.81547 10.1801 5.81283 5.90637 5.81812C5.90897 7.89369 5.90376 9.97058 5.90897 12.0462C9.65047 12.0382 13.392 12.0448 17.1322 12.0435C17.153 13.6918 17.1283 15.3401 17.1452 16.9884C13.3998 16.9844 9.65567 16.9923 5.91157 16.9844C5.90246 20.8948 5.90637 24.8052 5.90897 28.7156C4.13517 28.6957 2.36138 28.6957 0.587582 28.7142C0.568061 19.4291 0.584979 10.1426 0.579774 0.857381Z" fill="#3F3F3F"/>
<path d="M22.2582 28.7156C22.2517 19.4264 22.2504 10.1373 22.2595 0.848145C28.5114 0.867987 34.7646 0.857406 41.0178 0.853437C41.0191 2.50834 41.0113 4.16324 41.0217 5.81682C36.5072 5.81682 31.9913 5.80888 27.4768 5.82211C27.4911 7.76407 27.4781 9.70736 27.4833 11.6506C31.6296 11.6401 35.7745 11.6467 39.9207 11.6467C39.9051 13.2936 39.9233 14.9419 39.909 16.5889C35.768 16.5929 31.6257 16.5955 27.4846 16.5862C27.4742 18.97 27.495 21.3538 27.4742 23.7363C32.1931 23.7522 36.9119 23.739 41.632 23.7429C41.6438 25.3965 41.6438 27.0501 41.632 28.705C35.1745 28.7103 28.7157 28.6878 22.2582 28.7156Z" fill="#3F3F3F"/>
<path d="M45.6368 0.848145C47.5161 0.862696 49.3953 0.866665 51.2745 0.848145C54.6646 7.32091 58.0534 13.7937 61.45 20.2625C61.4618 13.795 61.4605 7.32753 61.45 0.861374C63.1067 0.852114 64.7634 0.864021 66.42 0.854761C66.4279 10.1399 66.4266 19.4251 66.4214 28.7103C64.6489 28.697 62.8764 28.705 61.1052 28.705C57.6279 22.0761 54.1427 15.4512 50.6472 8.83162C50.6485 15.4592 50.6498 22.0854 50.6459 28.7129C48.9762 28.6984 47.3052 28.6918 45.6342 28.7169C45.646 19.4277 45.6408 10.1373 45.6368 0.848145Z" fill="#3F3F3F"/>
<path d="M71.5081 0.853271C75.3784 0.865177 79.2487 0.85327 83.1191 0.859884C85.2416 0.894279 87.415 1.5028 89.0508 2.92752C90.7647 4.29271 91.7655 6.35108 92.3915 8.42665C92.9198 10.317 93.1124 12.2881 93.145 14.2486C93.0682 17.2766 92.6478 20.3774 91.2723 23.1025C90.4108 24.9902 88.9753 26.6186 87.1768 27.6227C85.8585 28.3516 84.3528 28.6585 82.864 28.6982C79.0822 28.7167 75.299 28.6836 71.5172 28.7154C71.4912 19.4276 71.5094 10.1398 71.5081 0.853271ZM76.7826 5.70817C76.7683 11.755 76.7748 17.8018 76.7787 23.8486C78.4614 23.8406 80.1428 23.8486 81.8255 23.8446C82.5139 23.8261 83.2167 23.7388 83.8518 23.4557C85.0816 22.9398 85.9548 21.8219 86.5339 20.6406C87.5113 18.487 87.7247 16.0609 87.6609 13.7181C87.6024 11.4732 87.2666 9.06956 85.8103 7.28635C84.9345 6.18308 83.4848 5.81665 82.1547 5.72802C80.364 5.69494 78.5733 5.73463 76.7826 5.70817Z" fill="#3F3F3F"/>
<path d="M96.7042 28.722C96.6847 19.4302 96.6873 10.1385 96.7029 0.84668C98.4741 0.873137 100.247 0.853294 102.018 0.854617C102.026 10.1371 102.03 19.421 102.017 28.7048C100.245 28.7128 98.4741 28.6784 96.7042 28.722Z" fill="#3F3F3F"/>
</svg>
