<svg width="10" height="10" viewBox="0 0 10 10" fill="none" xmlns="http://www.w3.org/2000/svg">
<path d="M1.25 5.41663C2.75 2.08329 7.25 2.08329 8.75 5.41663" stroke="black" stroke-width="0.5" stroke-linecap="round" stroke-linejoin="round"/>
<path d="M5 7.08325C4.83585 7.08325 4.6733 7.05092 4.52165 6.9881C4.36999 6.92528 4.23219 6.83321 4.11612 6.71714C4.00004 6.60106 3.90797 6.46326 3.84515 6.31161C3.78233 6.15995 3.75 5.9974 3.75 5.83325C3.75 5.6691 3.78233 5.50655 3.84515 5.3549C3.90797 5.20324 4.00004 5.06544 4.11612 4.94937C4.23219 4.8333 4.36999 4.74122 4.52165 4.6784C4.6733 4.61558 4.83585 4.58325 5 4.58325C5.33152 4.58325 5.64946 4.71495 5.88388 4.94937C6.1183 5.18379 6.25 5.50173 6.25 5.83325C6.25 6.16477 6.1183 6.48272 5.88388 6.71714C5.64946 6.95156 5.33152 7.08325 5 7.08325Z" stroke="black" stroke-width="0.5" stroke-linecap="round" stroke-linejoin="round"/>
</svg>
