<svg width="10" height="10" viewBox="0 0 10 10" fill="none" xmlns="http://www.w3.org/2000/svg">
<g clip-path="url(#clip0_37445_16)">
<path d="M6.37038 6.11544C6.30922 6.09544 5.92269 5.92121 6.16422 5.18698H6.16076C6.79038 4.53852 7.27153 3.49506 7.27153 2.46775C7.27153 0.888135 6.22115 0.0600586 5.00038 0.0600586C3.77884 0.0600586 2.73422 0.887751 2.73422 2.46775C2.73422 3.49929 3.21268 4.54698 3.84615 5.1939C4.09307 5.8416 3.65153 6.08198 3.55922 6.11583C2.28076 6.57814 0.780762 7.42083 0.780762 8.25275V8.56467C0.780762 9.69814 2.97845 9.95583 5.0123 9.95583C7.04922 9.95583 9.21922 9.69814 9.21922 8.56467V8.25275C9.21922 7.39583 7.71192 6.55967 6.37038 6.11544Z" fill="black"/>
</g>
<defs>
<clipPath id="clip0_37445_16">
<rect width="10" height="10" fill="white"/>
</clipPath>
</defs>
</svg>
