<svg width="6" height="6" viewBox="0 0 6 6" fill="none" xmlns="http://www.w3.org/2000/svg">
<g clip-path="url(#clip0_37445_28)">
<path d="M1.70252 4.68851C1.6984 4.67689 1.6338 4.64886 1.60755 4.64529C1.41115 4.61942 0.862428 4.60742 0.629835 5.08798C0.560741 5.23067 0.59421 5.52654 0.35346 5.77208C0.286241 5.84042 0.0594597 5.82692 0.00245973 5.90501C-0.0151653 5.92901 0.0865535 5.96183 0.125553 5.96201C0.68721 5.96576 1.32593 5.97589 1.61233 5.58608C1.79787 5.33417 2.05774 4.86842 1.70252 4.68804" fill="#324449"/>
<path d="M1.31343 5.66897C1.24396 5.70432 1.17524 5.68538 1.12349 5.63147C1.04878 5.55422 1.0874 5.54025 0.926713 5.58263C0.856494 5.601 0.805494 5.55722 0.757025 5.51879C0.718306 5.48822 0.702556 5.40582 0.710056 5.35866C0.711931 5.34685 0.713431 5.33972 0.715119 5.33297C0.708358 5.32153 0.703066 5.30927 0.699369 5.2965C0.685963 5.25638 0.692056 5.21035 0.707806 5.17154C0.712869 5.15925 0.662806 5.15832 0.604963 5.16141C0.564744 5.3176 0.558369 5.56275 0.353338 5.77191C0.286119 5.84025 0.0593377 5.82675 0.00233766 5.90485C-0.0152873 5.92885 0.0864314 5.96166 0.125431 5.96185C0.687088 5.9656 1.32581 5.97572 1.61221 5.58591L1.61559 5.58141C1.52053 5.58404 1.42021 5.61479 1.31343 5.6685" fill="#DA4241"/>
<path d="M3.46343 2.11998C2.25405 3.43904 1.4089 4.63295 1.57624 4.78604C1.74368 4.93941 2.85996 3.99423 4.06933 2.67479C5.27908 1.35573 6.12377 0.16182 5.95652 0.00844542C5.78946 -0.144648 4.67318 0.800633 3.46343 2.11998Z" fill="#E89842"/>
</g>
<defs>
<clipPath id="clip0_37445_28">
<rect width="6" height="6" fill="white"/>
</clipPath>
</defs>
</svg>
