<svg width="10" height="10" viewBox="0 0 10 10" fill="none" xmlns="http://www.w3.org/2000/svg">
<path d="M3.9025 4.45083C4.29347 5.1377 4.8623 5.70653 5.54917 6.0975L5.9175 5.58167C5.97673 5.49872 6.06431 5.44037 6.16367 5.41764C6.26302 5.39491 6.36726 5.40939 6.45667 5.45833C7.04596 5.7804 7.69675 5.97409 8.36625 6.02667C8.47074 6.03495 8.56827 6.08231 8.6394 6.1593C8.71052 6.23629 8.75001 6.33727 8.75 6.44208V8.30125C8.75002 8.40441 8.71177 8.50392 8.64265 8.5805C8.57353 8.65709 8.47846 8.70531 8.37583 8.71583C8.15407 8.73873 7.93127 8.75013 7.70833 8.75C4.14167 8.75 1.25 5.85833 1.25 2.29167C1.25 2.0675 1.26125 1.845 1.28417 1.62417C1.29469 1.52154 1.34291 1.42647 1.4195 1.35735C1.49608 1.28823 1.59559 1.24998 1.69875 1.25H3.55792C3.66273 1.24999 3.76371 1.28948 3.8407 1.3606C3.91769 1.43173 3.96505 1.52926 3.97333 1.63375C4.02591 2.30325 4.2196 2.95404 4.54167 3.54333C4.59061 3.63274 4.60509 3.73698 4.58236 3.83633C4.55963 3.93569 4.50128 4.02327 4.41833 4.0825L3.9025 4.45083ZM2.85167 4.17708L3.64333 3.61167C3.41866 3.12671 3.26473 2.61202 3.18625 2.08333H2.0875C2.085 2.1525 2.08375 2.22208 2.08375 2.29167C2.08333 5.39833 4.60167 7.91667 7.70833 7.91667C7.77792 7.91667 7.8475 7.91542 7.91667 7.9125V6.81375C7.38798 6.73527 6.87329 6.58134 6.38833 6.35667L5.82292 7.14833C5.59528 7.05987 5.37417 6.95545 5.16125 6.83583L5.13708 6.82208C4.31982 6.35697 3.64303 5.68018 3.17792 4.86292L3.16417 4.83875C3.04454 4.62583 2.94012 4.40472 2.85167 4.17708Z" fill="black"/>
</svg>
